<svg width="749" height="515" viewBox="0 0 749 515" fill="none" xmlns="http://www.w3.org/2000/svg">
<path d="M359.274 168.057L403.528 119.822L468.62 126.747L424.366 174.981L359.274 168.057Z" stroke="white" stroke-width="1.5" stroke-linecap="round" stroke-linejoin="round"/>
<path d="M464.727 199.125L446.493 150.861L413.947 147.399" stroke="white" stroke-width="1.5" stroke-linecap="round" stroke-linejoin="round"/>
<path d="M458.288 137.987L467.177 161.516C467.451 162.249 467.463 163.057 467.213 163.816C465.626 168.848 458.027 187.871 432.831 197.389C407.636 206.908 389.357 197.662 384.839 194.937C384.149 194.532 383.625 193.918 383.345 193.187L374.456 169.658" stroke="white" stroke-width="1.5" stroke-linecap="round" stroke-linejoin="round"/>
<path d="M347.224 396.168C347.224 396.168 286.705 401.736 267.5 372.652C264.105 367.51 262.677 361.298 263.458 355.072C264.24 348.846 267.182 342.992 271.786 338.504C276.39 334.016 282.37 331.172 288.709 330.456C295.048 329.741 301.354 331.198 306.555 334.579C305.488 328.468 306.625 322.096 309.772 316.548C312.92 310.999 317.884 306.616 323.819 304.145C329.754 301.673 336.295 301.266 342.327 302.993C348.36 304.719 353.512 308.472 356.907 313.614C376.112 342.698 347.224 396.168 347.224 396.168Z" stroke="white" stroke-width="1.5" stroke-linecap="round" stroke-linejoin="round"/>
<path d="M37.2973 499.062H19.3125C18.4589 499.062 17.6402 498.726 17.0365 498.128C16.4329 497.53 16.0938 496.72 16.0938 495.874V478.064C16.0923 477.65 16.1733 477.24 16.3321 476.857C16.4909 476.474 16.7243 476.126 17.0192 475.833L65.3004 428.02C65.5999 427.719 65.9569 427.48 66.3506 427.317C66.7443 427.153 67.1669 427.069 67.5938 427.069C68.0206 427.069 68.4432 427.153 68.8369 427.317C69.2306 427.48 69.5876 427.719 69.8871 428.02L87.8317 445.791C88.1358 446.087 88.3773 446.441 88.5421 446.831C88.707 447.22 88.7919 447.639 88.7919 448.062C88.7919 448.484 88.707 448.903 88.5421 449.293C88.3773 449.683 88.1358 450.036 87.8317 450.333L39.5504 498.145C39.2541 498.437 38.9026 498.668 38.516 498.826C38.1294 498.983 37.7152 499.063 37.2973 499.062Z" stroke="white" stroke-width="1.5" stroke-linecap="round" stroke-linejoin="round"/>
<path d="M54.7188 438.5L77.25 460.812" stroke="white" stroke-width="1.5" stroke-linecap="round" stroke-linejoin="round"/>
<path d="M65.9844 449.656L27.3594 487.906" stroke="white" stroke-width="1.5" stroke-linecap="round" stroke-linejoin="round"/>
<path d="M38.4238 498.863L16.2949 476.949" stroke="white" stroke-width="1.5" stroke-linecap="round" stroke-linejoin="round"/>
<path d="M170.868 371.607L147.742 333.004" stroke="white" stroke-width="1.5" stroke-linecap="round" stroke-linejoin="round"/>
<path d="M147.074 368.375C150.256 366.469 153.931 365.55 157.635 365.733C161.338 365.916 164.905 367.193 167.883 369.402C170.861 371.612 173.117 374.656 174.366 378.147C175.614 381.639 175.799 385.423 174.897 389.02C173.995 392.617 172.047 395.866 169.298 398.356C166.55 400.846 163.125 402.464 159.457 403.008C155.788 403.551 152.041 402.994 148.689 401.408C145.337 399.821 142.531 397.277 140.625 394.095L139.011 391.401" stroke="white" stroke-width="1.5" stroke-linecap="round" stroke-linejoin="round"/>
<path d="M179.244 349.104C176.063 351.009 173.518 353.816 171.932 357.168C170.345 360.52 169.789 364.267 170.332 367.935C170.875 371.604 172.494 375.028 174.984 377.777C177.473 380.525 180.722 382.473 184.319 383.375C187.916 384.277 191.7 384.092 195.192 382.844C198.684 381.595 201.727 379.339 203.937 376.361C206.147 373.383 207.424 369.817 207.607 366.113C207.79 362.409 206.87 358.734 204.964 355.553L203.35 352.859" stroke="white" stroke-width="1.5" stroke-linecap="round" stroke-linejoin="round"/>
<path d="M149.313 386.706L146.096 388.633C141.541 391.378 136.16 392.421 130.91 391.577C125.659 390.733 120.877 388.056 117.412 384.021C113.947 379.986 112.023 374.854 111.982 369.536C111.941 364.218 113.785 359.057 117.187 354.969L113.646 349.058C111.09 344.792 110.334 339.686 111.543 334.862C112.753 330.039 115.829 325.893 120.095 323.338C124.361 320.782 129.467 320.026 134.291 321.236C139.114 322.445 143.26 325.521 145.815 329.787L172.795 374.824" stroke="white" stroke-width="1.5" stroke-linecap="round" stroke-linejoin="round"/>
<path d="M194.35 359.726L197.567 357.799C202.137 355.078 205.595 350.826 207.328 345.798C209.061 340.77 208.957 335.291 207.034 330.332C205.112 325.374 201.495 321.256 196.825 318.711C192.156 316.165 186.735 315.356 181.526 316.427L177.985 310.516C175.429 306.25 171.284 303.174 166.46 301.964C161.637 300.755 156.53 301.511 152.264 304.067C147.998 306.622 144.922 310.768 143.713 315.591C142.504 320.415 143.26 325.521 145.815 329.787" stroke="white" stroke-width="1.5" stroke-linecap="round" stroke-linejoin="round"/>
<path d="M132.621 344.247L134.548 347.464C136.337 350.45 136.866 354.025 136.02 357.401C135.173 360.778 133.02 363.68 130.034 365.468" stroke="white" stroke-width="1.5" stroke-linecap="round" stroke-linejoin="round"/>
<path d="M164.791 324.977L166.718 328.194C168.506 331.18 171.408 333.333 174.785 334.18C178.161 335.026 181.736 334.497 184.722 332.708" stroke="white" stroke-width="1.5" stroke-linecap="round" stroke-linejoin="round"/>
<path d="M242.931 209.005C243.348 204.982 245.346 201.289 248.486 198.739C251.625 196.19 255.649 194.991 259.672 195.409L290.01 198.554C291.015 198.658 291.939 199.158 292.576 199.943C293.214 200.727 293.513 201.733 293.409 202.739L287.118 263.414C287.014 264.42 286.514 265.343 285.73 265.98C284.945 266.618 283.939 266.917 282.933 266.813L252.596 263.668C248.573 263.251 244.549 264.449 241.409 266.998C238.269 269.548 236.271 273.241 235.854 277.264" stroke="white" stroke-width="1.5" stroke-linecap="round" stroke-linejoin="round"/>
<path d="M188.522 253.192C188.418 254.197 188.717 255.203 189.355 255.988C189.992 256.773 190.915 257.273 191.921 257.377L222.258 260.522C226.281 260.939 229.974 262.937 232.524 266.077C235.073 269.217 236.271 273.24 235.854 277.263L242.931 209.004C243.348 204.981 242.15 200.957 239.6 197.818C237.051 194.678 233.358 192.68 229.335 192.263L198.998 189.118C197.992 189.013 196.986 189.313 196.201 189.95C195.416 190.588 194.917 191.511 194.812 192.517L188.522 253.192Z" stroke="white" stroke-width="1.5" stroke-linecap="round" stroke-linejoin="round"/>
<path d="M183.25 471.625V494.625H240.75V471.625" stroke="white" stroke-width="1.5" stroke-linecap="round" stroke-linejoin="round"/>
<path d="M197.625 480.25H226.375" stroke="white" stroke-width="1.5" stroke-linecap="round" stroke-linejoin="round"/>
<path d="M200.141 461.276L227.884 468.715" stroke="white" stroke-width="1.5" stroke-linecap="round" stroke-linejoin="round"/>
<path d="M207.436 443.594L232.341 457.969" stroke="white" stroke-width="1.5" stroke-linecap="round" stroke-linejoin="round"/>
<path d="M219.116 428.427L239.421 448.731" stroke="white" stroke-width="1.5" stroke-linecap="round" stroke-linejoin="round"/>
<path d="M643.75 54.8037L680.272 86.9381C680.694 87.3118 681.206 87.5692 681.757 87.6852C682.309 87.8011 682.881 87.7716 683.418 87.5995C683.955 87.4274 684.438 87.1186 684.819 86.7035C685.2 86.2884 685.467 85.7813 685.593 85.2319L700.868 18.5256C700.997 17.9511 700.966 17.3527 700.781 16.7941C700.595 16.2355 700.261 15.7378 699.815 15.354C699.369 14.9703 698.827 14.715 698.247 14.6153C697.667 14.5156 697.07 14.5754 696.522 14.7881L621.528 44.2412C618.522 45.4194 618.928 49.8069 622.097 50.4569L643.75 54.8037Z" stroke="white" stroke-width="1.5" stroke-linecap="round" stroke-linejoin="round"/>
<path d="M643.75 54.8035L699.041 14.8691" stroke="white" stroke-width="1.5" stroke-linecap="round" stroke-linejoin="round"/>
<path d="M661.991 70.8496L649.316 83.5246C648.863 83.9838 648.285 84.2981 647.654 84.4278C647.022 84.5574 646.367 84.4964 645.77 84.2526C645.174 84.0087 644.663 83.593 644.303 83.0583C643.944 82.5236 643.751 81.8941 643.75 81.2496V54.8027" stroke="white" stroke-width="1.5" stroke-linecap="round" stroke-linejoin="round"/>
<path d="M561.625 144.25C574.673 144.25 585.25 133.673 585.25 120.625C585.25 107.577 574.673 97 561.625 97C548.577 97 538 107.577 538 120.625C538 133.673 548.577 144.25 561.625 144.25Z" stroke="white" stroke-width="1.5" stroke-linecap="round" stroke-linejoin="round"/>
<path d="M578.332 137.33L592 150.999" stroke="white" stroke-width="1.5" stroke-linecap="round" stroke-linejoin="round"/>
<path d="M483.188 397.75C487.192 397.75 490.438 394.504 490.438 390.5C490.438 386.496 487.192 383.25 483.188 383.25C479.183 383.25 475.938 386.496 475.938 390.5C475.938 394.504 479.183 397.75 483.188 397.75Z" stroke="white" stroke-width="1.5" stroke-linecap="round" stroke-linejoin="round"/>
<path d="M470.953 455.75C466.33 458.138 461.203 459.384 456 459.384C450.797 459.384 445.67 458.138 441.047 455.75" stroke="white" stroke-width="1.5" stroke-linecap="round" stroke-linejoin="round"/>
<path d="M456 408.625L459.625 386.875L476.028 389.413" stroke="white" stroke-width="1.5" stroke-linecap="round" stroke-linejoin="round"/>
<path d="M424.916 416.736C433.208 411.661 444.083 408.625 456 408.625C467.918 408.625 478.793 411.661 487.085 416.736C488.036 415.431 489.266 414.354 490.685 413.583C492.104 412.813 493.677 412.368 495.289 412.281C496.902 412.194 498.514 412.468 500.007 413.082C501.501 413.696 502.839 414.634 503.925 415.83C505.01 417.025 505.816 418.448 506.283 419.993C506.751 421.539 506.868 423.17 506.627 424.766C506.385 426.363 505.791 427.886 504.888 429.225C503.984 430.563 502.794 431.684 501.403 432.505C502.543 435.279 503.128 438.25 503.125 441.25C503.125 459.284 482.01 473.875 456 473.875C429.991 473.875 408.875 459.284 408.875 441.25C408.873 438.25 409.458 435.279 410.597 432.505C409.207 431.684 408.017 430.563 407.113 429.225C406.21 427.886 405.616 426.363 405.374 424.766C405.133 423.17 405.25 421.539 405.717 419.993C406.185 418.448 406.99 417.025 408.076 415.83C409.162 414.634 410.5 413.696 411.993 413.082C413.487 412.468 415.099 412.194 416.711 412.281C418.324 412.368 419.897 412.813 421.316 413.583C422.735 414.354 423.965 415.431 424.916 416.736Z" stroke="white" stroke-width="1.5" stroke-linecap="round" stroke-linejoin="round"/>
<path d="M437.875 441.25C440.878 441.25 443.312 438.816 443.312 435.812C443.312 432.809 440.878 430.375 437.875 430.375C434.872 430.375 432.438 432.809 432.438 435.812C432.438 438.816 434.872 441.25 437.875 441.25Z" fill="white"/>
<path d="M474.125 441.25C477.128 441.25 479.562 438.816 479.562 435.812C479.562 432.809 477.128 430.375 474.125 430.375C471.122 430.375 468.688 432.809 468.688 435.812C468.688 438.816 471.122 441.25 474.125 441.25Z" fill="white"/>
<path d="M409.33 259.179L415.012 285.308C419.106 304.135 437.578 316.457 456.436 312.505C460.946 311.557 465.224 309.726 469.024 307.118C472.824 304.509 476.07 301.174 478.575 297.306C481.081 293.437 482.796 289.111 483.623 284.577C484.449 280.043 484.371 275.39 483.391 270.886L477.617 244.33C477.398 243.324 476.788 242.446 475.922 241.889C475.056 241.333 474.004 241.143 472.998 241.362L412.299 254.561C411.293 254.78 410.415 255.389 409.858 256.255C409.301 257.121 409.112 258.173 409.33 259.179Z" stroke="white" stroke-width="1.5" stroke-linecap="round" stroke-linejoin="round"/>
<path d="M445.623 334.722L475.972 328.122" stroke="white" stroke-width="1.5" stroke-linecap="round" stroke-linejoin="round"/>
<path d="M456.673 312.454L460.797 331.422" stroke="white" stroke-width="1.5" stroke-linecap="round" stroke-linejoin="round"/>
<path d="M484.187 278.658L488.834 277.648C492.859 276.773 496.371 274.334 498.598 270.87C500.825 267.405 501.584 263.198 500.709 259.173L499.059 251.586C498.84 250.58 498.231 249.702 497.365 249.145C496.499 248.588 495.447 248.398 494.441 248.617L479.266 251.917" stroke="white" stroke-width="1.5" stroke-linecap="round" stroke-linejoin="round"/>
<path d="M417.704 293.117L412.914 294.158C408.89 295.033 404.682 294.274 401.218 292.047C397.753 289.82 395.315 286.308 394.44 282.283L392.79 274.696C392.571 273.69 392.761 272.638 393.318 271.772C393.874 270.906 394.752 270.296 395.759 270.077L410.933 266.778" stroke="white" stroke-width="1.5" stroke-linecap="round" stroke-linejoin="round"/>
<path d="M669.5 142.188L654.125 155L669.5 167.812" stroke="white" stroke-width="1.5" stroke-linecap="round" stroke-linejoin="round"/>
<path d="M710.5 142.188L725.875 155L710.5 167.812" stroke="white" stroke-width="1.5" stroke-linecap="round" stroke-linejoin="round"/>
<path d="M700.25 126.812L679.75 183.188" stroke="white" stroke-width="1.5" stroke-linecap="round" stroke-linejoin="round"/>
<path d="M647.188 268.625V223.938C647.188 222.114 647.912 220.365 649.201 219.076C650.49 217.787 652.239 217.062 654.062 217.062H715.938C717.761 217.062 719.51 217.787 720.799 219.076C722.088 220.365 722.812 222.114 722.812 223.938V268.625" stroke="white" stroke-width="1.5" stroke-linecap="round" stroke-linejoin="round"/>
<path d="M640.312 268.625H729.688V275.5C729.688 277.323 728.963 279.072 727.674 280.361C726.385 281.651 724.636 282.375 722.812 282.375H647.188C645.364 282.375 643.615 281.651 642.326 280.361C641.037 279.072 640.312 277.323 640.312 275.5V268.625Z" stroke="white" stroke-width="1.5" stroke-linecap="round" stroke-linejoin="round"/>
<path d="M691.875 230.812H678.125" stroke="white" stroke-width="1.5" stroke-linecap="round" stroke-linejoin="round"/>
<path d="M578.863 272.401C592.307 265.896 597.932 249.723 591.427 236.279C584.921 222.835 568.749 217.21 555.304 223.716C541.86 230.221 536.235 246.394 542.741 259.838C549.247 273.282 565.419 278.907 578.863 272.401Z" stroke="white" stroke-width="1.5" stroke-linecap="round" stroke-linejoin="round"/>
<path d="M574.151 262.664C582.218 258.761 585.593 249.057 581.689 240.991C577.786 232.924 568.083 229.55 560.016 233.453C551.95 237.356 548.575 247.06 552.478 255.126C556.381 263.193 566.085 266.568 574.151 262.664Z" stroke="white" stroke-width="1.5" stroke-linecap="round" stroke-linejoin="round"/>
<path d="M591.113 260.465L602.892 284.808L584.753 284.573L573.681 298.943L561.902 274.601" stroke="white" stroke-width="1.5" stroke-linecap="round" stroke-linejoin="round"/>
<path d="M312.285 476.079L320.078 439.398C320.181 438.911 320.474 438.486 320.891 438.215C321.308 437.944 321.815 437.85 322.302 437.953L362.651 446.526C363.138 446.629 363.563 446.922 363.834 447.339C364.105 447.756 364.199 448.263 364.096 448.75L356.302 485.431L349.745 480.204L341.63 482.314L335.073 477.087L326.957 479.196L320.4 473.969L312.285 476.079Z" stroke="white" stroke-width="1.5" stroke-linecap="round" stroke-linejoin="round"/>
<path d="M324.183 465.188L334.636 452.074L338.855 468.305" stroke="white" stroke-width="1.5" stroke-linecap="round" stroke-linejoin="round"/>
<path d="M326.796 461.91L337.8 464.248" stroke="white" stroke-width="1.5" stroke-linecap="round" stroke-linejoin="round"/>
<path d="M344.082 461.749L353.252 463.697" stroke="white" stroke-width="1.5" stroke-linecap="round" stroke-linejoin="round"/>
<path d="M349.641 458.138L347.693 467.308" stroke="white" stroke-width="1.5" stroke-linecap="round" stroke-linejoin="round"/>
<path d="M651.932 373.718L638.906 380.153L622.031 348.137L635.215 341.598C636.195 341.103 637.332 341.012 638.379 341.345C639.426 341.678 640.298 342.409 640.805 343.377L653.777 368.016C654.04 368.509 654.201 369.05 654.251 369.606C654.3 370.161 654.237 370.721 654.065 371.253C653.893 371.784 653.616 372.276 653.249 372.699C652.883 373.123 652.435 373.469 651.932 373.718Z" stroke="white" stroke-width="1.5" stroke-linecap="round" stroke-linejoin="round"/>
<path d="M546.093 379.63L533.068 373.143C532.566 372.899 532.119 372.558 531.754 372.139C531.388 371.721 531.11 371.233 530.938 370.706C530.766 370.179 530.702 369.623 530.751 369.071C530.8 368.519 530.96 367.983 531.222 367.493L544.195 342.854C544.702 341.886 545.571 341.154 546.615 340.812C547.659 340.47 548.796 340.546 549.785 341.023L562.968 347.562L546.093 379.63Z" stroke="white" stroke-width="1.5" stroke-linecap="round" stroke-linejoin="round"/>
<path d="M638.906 380.151L630.469 389.986L611.062 409.237C610.534 409.727 609.893 410.084 609.195 410.275C608.497 410.466 607.762 410.487 607.055 410.335L576.469 402.75C575.91 402.596 575.389 402.328 574.939 401.965L546.094 379.628" stroke="white" stroke-width="1.5" stroke-linecap="round" stroke-linejoin="round"/>
<path d="M630.47 389.986L607.266 373.246L600.516 378.268C597.592 380.433 594.041 381.603 590.391 381.603C586.742 381.603 583.191 380.433 580.266 378.268L577.419 376.123C576.937 375.76 576.539 375.299 576.25 374.772C575.962 374.245 575.789 373.663 575.744 373.064C575.699 372.466 575.783 371.865 575.99 371.301C576.197 370.737 576.522 370.223 576.944 369.793L597.616 349.339C598.004 348.956 598.465 348.652 598.972 348.446C599.479 348.239 600.021 348.134 600.569 348.136H622.032" stroke="white" stroke-width="1.5" stroke-linecap="round" stroke-linejoin="round"/>
<path d="M563.285 347.564L590.338 339.717C591.299 339.443 592.327 339.518 593.238 339.926L611.484 348.139" stroke="white" stroke-width="1.5" stroke-linecap="round" stroke-linejoin="round"/>
<path d="M584.062 421.373L568.189 417.397C567.543 417.253 566.944 416.946 566.449 416.508L554.531 406.255" stroke="white" stroke-width="1.5" stroke-linecap="round" stroke-linejoin="round"/>
<path d="M728.147 376.321L689.105 387.091C688.53 387.25 687.915 387.173 687.396 386.879C686.877 386.584 686.496 386.096 686.338 385.52L682.351 371.07C682.224 370.6 682.25 370.102 682.426 369.649L685.986 360.556C686.162 360.102 686.189 359.604 686.061 359.135L680.878 340.346C680.719 339.77 680.796 339.156 681.09 338.637C681.385 338.118 681.874 337.737 682.449 337.578L688.956 335.783" stroke="white" stroke-width="1.5" stroke-linecap="round" stroke-linejoin="round"/>
<path d="M728.147 376.321L705.569 373.797C705.123 373.749 704.702 373.567 704.361 373.276C704.021 372.985 703.776 372.597 703.66 372.164L700.055 359.096C699.934 358.675 699.698 358.295 699.373 358L694.244 353.58C693.92 353.285 693.684 352.906 693.563 352.484L687.393 330.117C687.298 329.774 687.286 329.413 687.358 329.065C687.429 328.716 687.583 328.39 687.805 328.112C688.027 327.834 688.312 327.613 688.637 327.467C688.961 327.321 689.316 327.254 689.671 327.271L714.984 328.603L728.147 376.321Z" stroke="white" stroke-width="1.5" stroke-linecap="round" stroke-linejoin="round"/>
<path d="M676.868 427.974C670.787 422.994 662.1 423.546 657.465 429.207C652.829 434.867 654 443.493 660.081 448.472L677.696 462.898C683.777 467.878 692.464 467.326 697.099 461.665C701.735 456.005 700.564 447.379 694.483 442.4L676.868 427.974Z" stroke="white" stroke-width="1.5" stroke-linecap="round" stroke-linejoin="round"/>
<path d="M705.908 468.878L714.716 476.091" stroke="white" stroke-width="1.5" stroke-linecap="round" stroke-linejoin="round"/>
<path d="M703.316 436.106C707.706 440.589 710.384 446.394 710.843 452.418C711.301 458.443 709.508 464.269 705.804 468.793C702.099 473.316 696.741 476.223 690.744 476.961C684.747 477.699 678.529 476.218 673.268 472.798" stroke="white" stroke-width="1.5" stroke-linecap="round" stroke-linejoin="round"/>
<path d="M556.863 481.933C552.795 479.378 549.801 475.425 548.441 470.818C547.082 466.211 547.451 461.266 549.48 456.912C551.509 452.558 555.058 449.095 559.46 447.172C563.862 445.25 568.814 445 573.387 446.471C577.96 447.942 581.838 451.032 584.294 455.16C586.75 459.288 587.614 464.171 586.724 468.891C585.834 473.612 583.251 477.845 579.461 480.796C575.671 483.746 570.934 485.212 566.139 484.917L560.969 489.753C560.755 489.951 560.492 490.089 560.208 490.152C559.923 490.215 559.627 490.202 559.35 490.112C559.072 490.023 558.824 489.862 558.63 489.645C558.435 489.427 558.302 489.162 558.244 488.877L556.863 481.933Z" stroke="white" stroke-width="1.5" stroke-linecap="round" stroke-linejoin="round"/>
<path d="M575.368 483.255C577.48 485.259 580.011 486.77 582.778 487.677C585.545 488.584 588.478 488.865 591.367 488.499C594.256 488.134 597.027 487.132 599.482 485.565C601.936 483.998 604.011 481.906 605.558 479.439L612.502 478.057C612.787 477.999 613.052 477.866 613.27 477.672C613.487 477.477 613.648 477.229 613.738 476.951C613.827 476.674 613.841 476.378 613.777 476.093C613.714 475.809 613.576 475.546 613.378 475.333L608.542 470.162C608.755 466.782 608.092 463.405 606.617 460.356C605.141 457.308 602.903 454.693 600.12 452.764C597.337 450.835 594.102 449.658 590.73 449.346C587.358 449.034 583.962 449.599 580.873 450.985" stroke="white" stroke-width="1.5" stroke-linecap="round" stroke-linejoin="round"/>
</svg>
